<svg width="95" height="24" viewBox="0 0 95 24" fill="none" xmlns="http://www.w3.org/2000/svg">
<path d="M4.3869e-05 23.2L11.968 0.35195H17.792L20.096 23.2H15.456L15.072 17.76H7.68004L4.99204 23.2H4.3869e-05ZM9.63204 13.696H14.848L14.432 7.80795C14.3894 7.18928 14.3467 6.55995 14.304 5.91995C14.2614 5.27995 14.2507 4.62928 14.272 3.96795H14.208C13.9947 4.54395 13.76 5.11995 13.504 5.69595C13.248 6.25062 12.96 6.85862 12.64 7.51995L9.63204 13.696ZM19.3258 23.2L24.1578 0.35195H28.9258L26.5258 11.392L28.9578 8.12795L35.4218 0.35195H41.0538L31.7738 11.296L36.3178 23.2H31.0378L27.7418 13.952L25.7898 15.04L24.0938 23.2H19.3258ZM44.3738 23.52C42.5178 23.52 40.9605 23.1573 39.7018 22.432C38.4431 21.7066 37.4938 20.6933 36.8538 19.392C36.2138 18.0906 35.8938 16.5653 35.8938 14.816C35.8938 13.6213 36.0005 12.4373 36.2138 11.264C36.4271 10.0693 36.7471 8.91728 37.1738 7.80795C37.6218 6.69862 38.1658 5.67462 38.8058 4.73595C39.4671 3.79728 40.2458 2.97595 41.1418 2.27195C42.0378 1.54662 43.0511 0.99195 44.1818 0.60795C45.3338 0.202617 46.6031 -4.95911e-05 47.9898 -4.95911e-05C50.7631 -4.95911e-05 52.8431 0.778617 54.2298 2.33595C55.6378 3.89328 56.3418 5.96262 56.3418 8.54395C56.3418 9.78128 56.2351 11.008 56.0218 12.224C55.8298 13.44 55.5205 14.6133 55.0938 15.744C54.6671 16.8533 54.1231 17.888 53.4618 18.848C52.8218 19.7866 52.0538 20.608 51.1578 21.312C50.2831 21.9946 49.2805 22.5386 48.1498 22.944C47.0191 23.328 45.7605 23.52 44.3738 23.52ZM44.7258 19.456C45.3445 19.456 45.9418 19.3493 46.5178 19.136C47.0938 18.9013 47.6271 18.5706 48.1178 18.144C48.6298 17.696 49.0885 17.1626 49.4938 16.544C49.8991 15.904 50.2511 15.1893 50.5498 14.4C50.8485 13.5893 51.0725 12.704 51.2218 11.744C51.3925 10.784 51.4778 9.75995 51.4778 8.67195C51.4778 7.26395 51.1471 6.14395 50.4858 5.31195C49.8458 4.45862 48.8858 4.03195 47.6058 4.03195C46.9445 4.03195 46.3151 4.15995 45.7178 4.41595C45.1205 4.67195 44.5658 5.04528 44.0538 5.53595C43.5631 6.00528 43.1045 6.57062 42.6778 7.23195C42.2725 7.89328 41.9205 8.62928 41.6218 9.43995C41.3445 10.2293 41.1311 11.0826 40.9818 12C40.8325 12.896 40.7578 13.8346 40.7578 14.816C40.7578 15.8186 40.9071 16.672 41.2058 17.376C41.5258 18.0586 41.9845 18.5813 42.5818 18.944C43.1791 19.2853 43.8938 19.456 44.7258 19.456ZM54.6608 23.2L59.4928 0.35195H65.0928C67.3755 0.35195 69.1781 0.842616 70.5008 1.82395C71.8448 2.80528 72.5168 4.40528 72.5168 6.62395C72.5168 7.81862 72.2928 8.87462 71.8448 9.79195C71.4181 10.7093 70.8208 11.4773 70.0528 12.096C69.3061 12.6933 68.4528 13.1626 67.4928 13.504L71.5568 23.2H66.3728L63.1408 14.432H61.2848L59.4288 23.2H54.6608ZM63.3328 10.496C64.0155 10.496 64.6235 10.4213 65.1568 10.272C65.6901 10.1226 66.1381 9.89862 66.5008 9.59995C66.8848 9.30128 67.1728 8.92795 67.3648 8.47995C67.5568 8.01062 67.6528 7.47728 67.6528 6.87995C67.6528 6.02662 67.4075 5.38662 66.9168 4.95995C66.4261 4.53328 65.6475 4.31995 64.5808 4.31995H63.4288L62.1168 10.496H63.3328ZM70.6408 23.2L75.4728 0.35195H81.0408L86.3528 17.184H86.4808C86.5448 16.8426 86.6088 16.4266 86.6728 15.936C86.7581 15.4453 86.8435 14.9226 86.9288 14.368C87.0355 13.792 87.1421 13.2266 87.2488 12.672C87.3555 12.1173 87.4515 11.616 87.5368 11.168L89.8408 0.35195H94.1288L89.2968 23.2H83.9528L78.3848 5.91995H78.2248C78.2035 6.04795 78.1608 6.35728 78.0968 6.84795C78.0328 7.31728 77.9475 7.88262 77.8408 8.54395C77.7555 9.20528 77.6488 9.88795 77.5208 10.592C77.4141 11.2746 77.3075 11.8933 77.2008 12.448L74.9288 23.2H70.6408Z" fill="white"/>
</svg>
